<svg width="1000" height="1000" viewBox="0 0 1000 1000" fill="none" xmlns="http://www.w3.org/2000/svg">
<path fill-rule="evenodd" clip-rule="evenodd" d="M721.557 599.2C723.793 600.096 726.132 601.073 728.568 602.134C726.128 601.071 723.785 600.091 721.546 599.194C721.55 599.196 721.553 599.198 721.557 599.2Z" fill="white"/>
<path fill-rule="evenodd" clip-rule="evenodd" d="M847.945 225.002C841.266 224.954 834.397 225.668 827.344 227.853C809.969 233.238 796.771 249.488 792.28 263.701C792.129 264.178 791.984 264.654 791.844 265.128C787.808 278.783 788.074 291.293 788.854 303.587C789.605 315.424 791.115 327.366 792.514 338.439L792.515 338.44L792.515 338.445C794.124 351.171 795.588 362.75 795.588 371.701C795.588 381.137 796.78 390.197 798.997 398.769C806.338 427.149 824.917 450.169 848.674 463.69C844.669 466.545 840.933 469.799 837.627 473.568C834.828 476.681 832.394 479.993 830.169 483.424C827.746 479.477 825.068 475.684 822.062 472.154C811.71 459.997 799.159 449.945 785.068 442.369C782.591 441.037 780.065 439.781 777.496 438.604C760.64 430.484 742.763 425.897 724.747 425.897C718.006 425.897 711.301 426.23 704.648 426.894C693.462 428.012 682.421 430.066 671.597 433.052C665.047 434.748 658.793 437.082 652.721 439.737C649.291 436.657 645.568 433.96 641.61 431.748C628.026 423.819 612.293 419.76 596.538 419.76C591.23 419.76 585.909 420.158 580.676 420.991C565.357 423.43 550.788 429.591 539.457 440.374C539.454 440.376 539.452 440.382 539.45 440.384C526.951 452.266 518.325 467.733 513.431 484.596L513.304 485.031L513.191 485.473C511.652 491.44 510.429 497.606 509.376 503.885C508.237 500.578 506.971 497.358 505.549 494.234C502.21 486.896 498.01 480.091 492.574 473.966C489.429 470.224 485.858 466.985 482.015 464.136C488.595 460.448 494.742 456.067 500.339 451.091C522.594 431.306 536.15 402.121 533.61 369.782C530.396 328.868 508.263 295.511 481.971 271.448C479.762 269.427 477.524 267.471 475.265 265.582C447.943 242.729 418.181 227.674 387.932 225.681C385.914 225.548 383.893 225.473 381.871 225.458H381.86C375.183 225.41 368.313 226.126 361.258 228.313C356.601 229.756 352.245 231.98 348.275 234.736C343.555 238.013 339.382 242.042 335.903 246.406C331.393 252.064 328.05 258.286 326.194 264.159C321.704 278.371 321.961 291.323 322.768 304.045C323.519 315.885 325.03 327.829 326.43 338.903L326.43 338.905C328.04 351.63 329.504 363.206 329.504 372.157C329.504 403.568 342.704 430.847 362.962 449.751C369.215 455.585 376.14 460.622 383.557 464.737C380.078 467.353 376.784 470.236 373.861 473.568C366.378 481.889 361.075 491.38 357.244 501.855C353.812 511.24 351.562 521.415 349.983 532.246L349.937 532.552L349.9 532.861C349.515 535.939 349.203 539.249 348.892 542.56L348.881 542.669C348.827 543.246 348.772 543.824 348.718 544.4C348.617 544.067 348.518 543.733 348.418 543.399L348.417 543.397C347.717 541.055 347.016 538.713 346.244 536.418C335.76 503.64 317.826 475.782 292.749 455.816C266.654 435.038 233.181 425.282 196.57 425.282C182.92 425.282 169.619 427.209 157.129 431.308C153.684 432.439 150.3 433.735 146.988 435.202C146.793 435.285 146.607 435.373 146.42 435.461C146.249 435.542 146.079 435.623 145.901 435.7C143.619 433.411 141.213 431.234 138.575 429.301C125.074 419.409 108.551 415.462 92.2846 415.462C72.2492 415.462 51.5419 423.935 37.9472 438.894C26.0912 451.941 17.8621 468.038 12.3669 486.028L12.2538 486.401L12.1496 486.774C7.52512 503.428 4.37655 521.14 2.59212 539.884C0.869982 557.973 0 575.708 0 593.083C0 610.458 0.868742 628.372 2.58505 646.829L2.61863 647.177L2.6575 647.524C4.87111 666.568 8.438 684.572 13.4552 701.512L13.5278 701.757H13.5261C18.9661 720.063 27.0697 736.431 38.7264 749.841L38.9702 750.119L39.2176 750.391C52.8161 765.29 73.336 774.387 93.5126 774.387C101.179 774.387 108.984 773.597 116.496 771.794C131.003 768.312 144.416 761.05 153.619 748.39L153.805 748.134L153.987 747.874C164.164 733.239 169.297 715.692 170.389 697.504C171.654 682.921 172.299 668.162 172.299 653.225C172.299 643.672 173.105 635.634 174.369 629.112C175.57 622.914 177.184 618.085 178.913 614.627L178.996 614.462L179.077 614.298C180.39 611.589 180.351 610.701 180.317 610.534C180.378 610.663 180.747 611.146 182.461 611.146C185.2 611.146 186.173 610.777 186.504 610.652L186.506 610.651L186.511 610.649L186.514 610.648L186.545 610.637L186.562 610.63L186.576 610.625C186.587 610.621 186.597 610.618 186.606 610.616C186.618 610.612 186.628 610.611 186.637 610.611L186.641 610.611L186.645 610.611L186.648 610.612L186.651 610.614L186.655 610.616C186.67 610.629 186.666 610.666 186.658 610.736C186.627 611.01 186.539 611.793 187.366 613.614L187.439 613.776L187.515 613.937C190.918 621.2 193.849 634.403 193.849 653.225C193.849 656.754 193.884 660.283 193.955 663.813C194.187 675.469 194.802 687.123 195.8 698.771L195.805 698.808L195.807 698.849C197.396 716.865 202.74 734.052 212.777 748.486L213.212 749.108L213.674 749.709C227.663 767.819 250.719 775 272.638 775C286.2 775 300.041 771.896 312.034 765.477C318.724 761.895 324.84 757.282 330.011 751.6C341.41 739.105 348.927 723.582 353.398 706.711C356.993 722.463 362.611 736.525 372.065 748.497C372.429 748.957 372.799 749.415 373.174 749.87L373.42 750.165L373.669 750.455C388.416 767.421 411.191 775 433.362 775C455.533 775 478.303 767.421 493.051 750.455C493.177 750.31 493.302 750.166 493.426 750.021C506.455 734.814 512.86 715.8 516.301 694.265C516.489 695.007 516.672 695.753 516.856 696.499L516.857 696.502C517.327 698.41 517.797 700.318 518.331 702.163C523.809 721.093 532.279 738.011 544.696 751.616L545.161 752.125L545.648 752.613C549.294 756.26 553.338 759.487 557.674 762.275C570.606 770.591 586.135 775 601.447 775C620.943 775 640.542 770.142 655.405 756.839L655.728 756.551L656.041 756.254C663.951 748.757 670.244 739.688 674.789 729.778C677.177 724.572 679.082 719.135 680.487 713.571C684.273 700.079 686.422 686.13 686.934 671.919C687.767 658.874 688.208 646.707 688.208 635.426C688.208 633.341 688.274 631.423 688.405 629.648C689.18 619.176 692.225 613.724 697.361 608.758L697.368 608.751L697.373 608.747L697.382 608.739C705.722 600.668 711.067 598.873 718.001 598.873C719.585 598.873 720.615 599.018 721.14 599.114C721.277 599.139 721.38 599.161 721.449 599.177L721.5 599.188L721.502 599.189C721.538 599.197 721.557 599.2 721.557 599.2C721.553 599.198 721.55 599.196 721.546 599.194C723.785 600.091 726.128 601.071 728.568 602.134C730.03 602.77 731.526 603.436 733.057 604.132L734.131 604.62L735.241 605.025C744.452 608.376 753.45 609.306 762.783 609.306C773.484 609.306 784.323 607.188 794.299 603.09C799.912 600.784 805.251 597.851 810.139 594.316C810.098 596.637 810.031 598.852 809.964 601.067L809.964 601.073L809.964 601.081C809.857 604.609 809.75 608.14 809.75 612.108V612.307L809.752 612.511C809.879 622.064 810.101 631.125 810.423 639.709C811.16 659.344 812.421 676.489 814.279 691.352L814.323 691.706L814.374 692.059C816.218 704.442 818.914 715.927 823.15 726.392C826.601 734.918 831.074 742.766 836.94 749.87L837.186 750.165L837.435 750.455C852.182 767.421 874.956 775 897.128 775C912.028 775 927.199 771.577 940.023 764.182C946.281 760.573 951.981 756.019 956.817 750.455C970.558 734.646 977.116 714.739 980.493 692.059L980.507 691.967C983.718 669.943 984.914 643.53 984.5 611.915C984.494 580.377 983.073 554.07 979.892 532.246C976.578 509.514 970.283 489.685 956.338 473.969C953.349 470.413 949.96 467.332 946.336 464.583C980.033 446.529 1002.93 410.509 999.696 369.326C996.212 324.975 970.493 289.502 941.348 265.124C937.279 261.721 933.156 258.49 928.985 255.45C903.281 236.715 875.768 225.21 847.953 225.002H847.945ZM848.98 242.353C852.332 241.314 856.174 240.827 860.39 240.858C876.324 240.977 897.599 248.504 917.919 261.65C949.571 282.127 978.904 316.238 982.123 357.221C985.224 396.692 954.86 428.836 916.3 431.858C914.336 432.012 912.352 432.091 910.349 432.091C873.362 432.091 838.576 401.473 838.576 357.221C838.576 349.597 837.914 341.424 836.993 333.073C836.383 327.546 835.66 321.941 834.941 316.367L834.941 316.365L834.941 316.363L834.941 316.361L834.94 316.358L834.94 316.353L834.939 316.35C834.039 309.368 833.145 302.435 832.487 295.763C829.938 269.883 830.953 247.94 848.98 242.353ZM382.896 242.81C386.248 241.771 390.09 241.284 394.306 241.315C415.859 241.477 447.182 255.19 472.696 278.03C495.428 298.379 513.549 325.972 516.039 357.679C517.897 381.335 507.735 402.36 490.991 416.061C478.376 426.383 462.025 432.548 444.265 432.548C418.294 432.548 393.408 417.452 380.888 393.141C375.578 382.829 372.492 370.858 372.492 357.679C372.492 345.008 370.662 330.819 368.857 316.825C366.238 296.518 363.672 276.623 366.827 262.373C368.966 252.714 373.734 245.65 382.896 242.81ZM73.0483 444.821C81.2276 435.82 91.8602 431.321 104.947 431.321C128.258 431.321 142.777 441.957 148.502 463.232C149.161 462.517 149.872 461.811 150.634 461.111C155.548 456.602 162.607 452.399 171.812 448.503C182.854 443.594 195.328 441.138 209.233 441.138C240.723 441.138 266.488 449.117 286.527 465.072C306.566 481.028 321.085 503.12 330.082 531.349C339.488 559.17 343.986 591.49 343.577 628.311C343.577 647.13 341.737 664.314 338.056 679.861C334.784 694.998 328.855 707.271 320.267 716.681C312.087 725.682 300.432 730.182 285.3 730.182C268.942 730.182 257.286 725.682 250.334 716.681C243.79 707.271 239.906 695.611 238.679 681.701C237.452 667.382 236.838 653.063 236.838 638.744C236.838 617.061 233.77 599.673 227.636 586.581C221.501 573.08 210.664 566.329 195.124 566.329C181.219 566.329 170.995 573.08 164.451 586.581C163.113 589.259 161.911 592.118 160.846 595.156C156.706 606.968 154.636 621.497 154.636 638.744C154.636 653.063 154.023 667.178 152.796 681.088C151.979 694.998 148.298 706.658 141.755 716.067C135.211 725.068 123.35 729.567 106.174 729.567C93.4959 729.567 82.8631 724.864 74.2749 715.454C66.0956 706.044 59.7564 693.77 55.2578 678.632C50.7592 663.495 47.4874 647.131 45.4426 629.539C43.8068 611.947 42.9895 594.968 42.9895 578.604C42.9895 562.239 43.8068 545.465 45.4426 528.282C47.0785 511.099 49.9416 495.143 54.0312 480.414C58.5298 465.686 64.8691 453.822 73.0483 444.821ZM555.217 478.574C558.898 465.891 564.827 455.663 573.006 447.89C573.248 447.659 573.494 447.431 573.742 447.207C582.278 439.48 594.098 435.616 609.2 435.616C620.242 435.616 630.262 438.275 639.259 443.594C648.257 448.503 653.982 456.071 656.435 466.299C665.841 457.708 677.701 451.572 692.015 447.89C697.65 446.324 703.345 445.058 709.1 444.091C718.381 442.533 727.818 441.753 737.41 441.753C750.497 441.753 763.788 445.026 777.284 451.572C779.09 452.393 780.859 453.259 782.592 454.168C793.808 460.052 803.49 467.779 811.637 477.347C821.043 488.393 825.745 500.87 825.745 514.781C825.745 526.645 821.248 537.896 812.251 548.533C805.149 557.329 795.53 562.488 783.394 564.011C780.854 564.329 778.204 564.489 775.443 564.489C768.49 564.489 762.765 563.67 758.267 562.033C753.768 559.988 749.474 558.147 745.384 556.51C741.294 554.874 736.388 554.056 730.663 554.056C724.082 554.056 717.733 555.217 711.616 557.538C703.668 560.554 696.111 565.53 688.947 572.466C676.678 584.33 670.545 600.491 670.545 620.947C670.545 631.584 670.135 643.244 669.317 655.927C669.224 658.706 669.058 661.463 668.819 664.2C668.001 673.552 666.327 682.658 663.796 691.52C661.851 699.302 658.774 706.14 654.565 712.035C652.578 714.817 650.338 717.389 647.847 719.75C640.076 726.705 628.831 730.182 614.108 730.182C612.208 730.182 610.354 730.098 608.546 729.93C597.12 728.868 587.523 724.452 579.755 716.681C571.167 707.271 564.623 694.793 560.124 679.247C555.626 663.701 552.558 645.903 550.923 625.856C549.287 605.81 548.469 585.149 548.469 563.875C548.469 549.556 548.674 535.032 549.083 520.304C549.901 505.166 551.945 491.256 555.217 478.574ZM409.217 479.187C417.396 469.777 429.665 465.072 446.023 465.072C462.382 465.072 474.446 469.777 482.216 479.187C490.396 488.188 495.917 502.506 498.78 522.144C500.159 531.6 501.205 542.336 501.919 554.352C502.689 567.292 503.073 581.717 503.073 597.627C503.482 628.311 502.256 653.472 499.393 673.109C496.531 692.338 491.009 706.658 482.829 716.067C477.698 721.971 470.958 726.022 462.607 728.222C457.647 729.529 452.119 730.182 446.023 730.182C431.215 730.182 419.758 726.327 411.653 718.616C410.804 717.809 409.992 716.959 409.217 716.067C401.446 706.658 396.13 692.338 393.267 673.109C392.077 663.584 391.128 652.76 390.418 640.636C389.666 627.764 389.184 613.428 388.973 597.627C388.973 566.943 390.2 541.782 392.654 522.144C395.517 502.506 401.038 488.188 409.217 479.187ZM872.982 479.187C881.161 469.777 893.429 465.072 909.788 465.072C914.733 465.072 919.285 465.502 923.445 466.362C933.048 468.347 940.559 472.622 945.981 479.187C954.16 488.188 959.681 502.506 962.544 522.144C965.406 541.782 966.838 566.943 966.838 597.627C967.247 628.311 966.021 653.472 963.158 673.109C960.295 692.338 954.774 706.658 946.594 716.067C938.415 725.477 926.147 730.182 909.788 730.182C893.429 730.182 881.161 725.477 872.982 716.067C867.581 709.528 863.366 700.616 860.336 689.334C859.007 684.382 857.905 678.974 857.032 673.109C854.578 653.472 853.147 628.311 852.738 597.627C852.738 566.943 853.964 541.782 856.418 522.144C859.28 502.506 864.802 488.188 872.982 479.187Z" fill="white"/>
</svg>
